<svg xmlns="http://www.w3.org/2000/svg" width="1200" height="680" viewBox="0 0 1200 680">
<rect width="100%" height="100%" fill="#fbfcfe"/>
<text x="60" y="44" font-family="Arial, sans-serif" font-size="28" font-weight="700" fill="#172033">Polling convergence speed: AMQ vs fitted minimax-DQN</text>
<text x="60" y="72" font-family="Arial, sans-serif" font-size="14" fill="#536173">1 seed(s). Similarity is measured against each method’s own final policy, using attacker+defender joint gap.</text>
<line x1="80" y1="440" x2="580" y2="440" stroke="#b8c2d0"/>
<line x1="80" y1="80" x2="80" y2="440" stroke="#b8c2d0"/>
<text x="80" y="56" font-family="Arial, sans-serif" font-size="18" font-weight="700" fill="#172033">Policy stabilization curve</text>
<text x="225" y="488" font-family="Arial, sans-serif" font-size="13" fill="#536173">effective Bellman backups (log scale)</text>
<text x="20" y="290" font-family="Arial, sans-serif" font-size="13" fill="#536173" transform="rotate(-90 20 290)">policy similarity (%)</text>
<line x1="75" y1="440.0" x2="580" y2="440.0" stroke="#e4e9f0"/>
<text x="36" y="444.0" font-family="Arial, sans-serif" font-size="12" fill="#536173">0</text>
<line x1="75" y1="350.0" x2="580" y2="350.0" stroke="#e4e9f0"/>
<text x="36" y="354.0" font-family="Arial, sans-serif" font-size="12" fill="#536173">25</text>
<line x1="75" y1="260.0" x2="580" y2="260.0" stroke="#e4e9f0"/>
<text x="36" y="264.0" font-family="Arial, sans-serif" font-size="12" fill="#536173">50</text>
<line x1="75" y1="170.0" x2="580" y2="170.0" stroke="#e4e9f0"/>
<text x="36" y="174.0" font-family="Arial, sans-serif" font-size="12" fill="#536173">75</text>
<line x1="75" y1="80.0" x2="580" y2="80.0" stroke="#e4e9f0"/>
<text x="36" y="84.0" font-family="Arial, sans-serif" font-size="12" fill="#536173">100</text>
<path d="M 80.0 116.4 L 102.1 114.8 L 131.4 111.6 L 153.5 109.5 L 175.6 104.3 L 204.8 87.9 L 226.9 82.1 L 249.0 80.0 L 278.3 80.0 L 300.4 80.0 L 322.5 80.0 L 351.7 80.0 L 373.9 80.0" fill="none" stroke="#1b7f5a" stroke-width="3"/>
<circle cx="80.0" cy="116.4" r="4" fill="#1b7f5a"/>
<circle cx="102.1" cy="114.8" r="4" fill="#1b7f5a"/>
<circle cx="131.4" cy="111.6" r="4" fill="#1b7f5a"/>
<circle cx="153.5" cy="109.5" r="4" fill="#1b7f5a"/>
<circle cx="175.6" cy="104.3" r="4" fill="#1b7f5a"/>
<circle cx="204.8" cy="87.9" r="4" fill="#1b7f5a"/>
<circle cx="226.9" cy="82.1" r="4" fill="#1b7f5a"/>
<circle cx="249.0" cy="80.0" r="4" fill="#1b7f5a"/>
<circle cx="278.3" cy="80.0" r="4" fill="#1b7f5a"/>
<circle cx="300.4" cy="80.0" r="4" fill="#1b7f5a"/>
<circle cx="322.5" cy="80.0" r="4" fill="#1b7f5a"/>
<circle cx="351.7" cy="80.0" r="4" fill="#1b7f5a"/>
<circle cx="373.9" cy="80.0" r="4" fill="#1b7f5a"/>
<path d="M 369.9 410.4 L 398.5 410.7 L 431.0 165.0 L 454.2 171.4 L 476.8 142.6 L 506.4 129.3 L 528.6 148.9 L 550.7 100.9 L 580.0 80.0" fill="none" stroke="#b23b3b" stroke-width="3"/>
<circle cx="369.9" cy="410.4" r="4" fill="#b23b3b"/>
<circle cx="398.5" cy="410.7" r="4" fill="#b23b3b"/>
<circle cx="431.0" cy="165.0" r="4" fill="#b23b3b"/>
<circle cx="454.2" cy="171.4" r="4" fill="#b23b3b"/>
<circle cx="476.8" cy="142.6" r="4" fill="#b23b3b"/>
<circle cx="506.4" cy="129.3" r="4" fill="#b23b3b"/>
<circle cx="528.6" cy="148.9" r="4" fill="#b23b3b"/>
<circle cx="550.7" cy="100.9" r="4" fill="#b23b3b"/>
<circle cx="580.0" cy="80.0" r="4" fill="#b23b3b"/>
<rect x="460" y="98" width="14" height="14" fill="#1b7f5a"/>
<text x="480" y="110" font-family="Arial, sans-serif" font-size="13" fill="#172033">AMQ</text>
<rect x="460" y="122" width="14" height="14" fill="#b23b3b"/>
<text x="480" y="134" font-family="Arial, sans-serif" font-size="13" fill="#172033">fitted minimax-DQN</text>
<text x="690" y="56" font-family="Arial, sans-serif" font-size="18" font-weight="700" fill="#172033">Stable compute summary</text>
<text x="690" y="120" font-family="Arial, sans-serif" font-size="15" font-weight="700" fill="#172033">Mean stable backups</text>
<text x="690" y="164" font-family="Arial, sans-serif" font-size="13" fill="#172033">AMQ</text>
<rect x="752" y="148" width="0.0" height="24" rx="3" fill="#1b7f5a"/>
<text x="762.0" y="165" font-family="Arial, sans-serif" font-size="13" fill="#172033">50</text>
<text x="690" y="212" font-family="Arial, sans-serif" font-size="13" fill="#172033">DQN</text>
<rect x="752" y="196" width="360.0" height="24" rx="3" fill="#b23b3b"/>
<text x="1122.0" y="213" font-family="Arial, sans-serif" font-size="13" fill="#172033">6,396,032</text>
<text x="690" y="290" font-family="Arial, sans-serif" font-size="15" font-weight="700" fill="#172033">Mean stable runtime</text>
<text x="690" y="334" font-family="Arial, sans-serif" font-size="13" fill="#172033">AMQ</text>
<rect x="752" y="318" width="0.0" height="24" rx="3" fill="#1b7f5a"/>
<text x="762.0" y="335" font-family="Arial, sans-serif" font-size="13" fill="#172033">0.0027s</text>
<text x="690" y="382" font-family="Arial, sans-serif" font-size="13" fill="#172033">DQN</text>
<rect x="752" y="366" width="360.0" height="24" rx="3" fill="#b23b3b"/>
<text x="1122.0" y="383" font-family="Arial, sans-serif" font-size="13" fill="#172033">381.0410s</text>
<text x="690" y="598" font-family="Arial, sans-serif" font-size="13" fill="#536173">AMQ uses one sampled update per backup; DQN uses full-grid fitted Bellman/minimax backups.</text>
<text x="690" y="622" font-family="Arial, sans-serif" font-size="13" fill="#536173">Stable condition: joint policy gap &lt;= 0.05 and remains stable at later checkpoints.</text>
</svg>