<svg xmlns="http://www.w3.org/2000/svg" width="1200" height="760" viewBox="0 0 1200 760">
<rect width="100%" height="100%" fill="#fbfcfe"/>
<text x="64" y="46" font-family="Arial, sans-serif" font-size="28" font-weight="700" fill="#172033">Polling convergence speed</text>
<text x="64" y="74" font-family="Arial, sans-serif" font-size="14" fill="#536173">AMQ vs fitted minimax-DQN; 10 seed(s); self-final joint policy gap.</text>
<line x1="90" y1="526" x2="1090" y2="526" stroke="#b8c2d0"/>
<line x1="90" y1="136" x2="90" y2="526" stroke="#b8c2d0"/>
<text x="90" y="114" font-family="Arial, sans-serif" font-size="18" font-weight="700" fill="#172033">Policy stabilization curve</text>
<text x="320" y="560" font-family="Arial, sans-serif" font-size="13" fill="#536173">cumulative effective Bellman / target work (log scale)</text>
<text x="24" y="386" font-family="Arial, sans-serif" font-size="13" fill="#536173" transform="rotate(-90 24 386)">policy similarity (%)</text>
<line x1="85" y1="508.0" x2="1090" y2="508.0" stroke="#e4e9f0"/>
<text x="46" y="512.0" font-family="Arial, sans-serif" font-size="12" fill="#536173">0</text>
<line x1="85" y1="410.5" x2="1090" y2="410.5" stroke="#e4e9f0"/>
<text x="46" y="414.5" font-family="Arial, sans-serif" font-size="12" fill="#536173">25</text>
<line x1="85" y1="313.0" x2="1090" y2="313.0" stroke="#e4e9f0"/>
<text x="46" y="317.0" font-family="Arial, sans-serif" font-size="12" fill="#536173">50</text>
<line x1="85" y1="215.5" x2="1090" y2="215.5" stroke="#e4e9f0"/>
<text x="46" y="219.5" font-family="Arial, sans-serif" font-size="12" fill="#536173">75</text>
<line x1="85" y1="118.0" x2="1090" y2="118.0" stroke="#e4e9f0"/>
<text x="46" y="122.0" font-family="Arial, sans-serif" font-size="12" fill="#536173">100</text>
<path d="M 90.0 181.1 L 134.2 180.6 L 192.7 178.7 L 236.9 176.7 L 281.2 171.0 L 339.6 156.2 L 383.9 139.3 L 428.1 124.2 L 486.6 119.4 L 530.8 118.6 L 575.0 118.3 L 633.5 118.1 L 677.7 118.0" fill="none" stroke="#1b7f5a" stroke-width="3"/>
<circle cx="90.0" cy="181.1" r="3.5" fill="#1b7f5a"/>
<circle cx="134.2" cy="180.6" r="3.5" fill="#1b7f5a"/>
<circle cx="192.7" cy="178.7" r="3.5" fill="#1b7f5a"/>
<circle cx="236.9" cy="176.7" r="3.5" fill="#1b7f5a"/>
<circle cx="281.2" cy="171.0" r="3.5" fill="#1b7f5a"/>
<circle cx="339.6" cy="156.2" r="3.5" fill="#1b7f5a"/>
<circle cx="383.9" cy="139.3" r="3.5" fill="#1b7f5a"/>
<circle cx="428.1" cy="124.2" r="3.5" fill="#1b7f5a"/>
<circle cx="486.6" cy="119.4" r="3.5" fill="#1b7f5a"/>
<circle cx="530.8" cy="118.6" r="3.5" fill="#1b7f5a"/>
<circle cx="575.0" cy="118.3" r="3.5" fill="#1b7f5a"/>
<circle cx="633.5" cy="118.1" r="3.5" fill="#1b7f5a"/>
<circle cx="677.7" cy="118.0" r="3.5" fill="#1b7f5a"/>
<path d="M 668.6 340.3 L 726.2 328.7 L 791.7 211.9 L 838.1 221.2 L 883.5 218.7 L 942.6 196.5 L 987.1 191.0 L 1031.5 174.9 L 1090.0 118.0" fill="none" stroke="#b23b3b" stroke-width="3"/>
<circle cx="668.6" cy="340.3" r="3.5" fill="#b23b3b"/>
<circle cx="726.2" cy="328.7" r="3.5" fill="#b23b3b"/>
<circle cx="791.7" cy="211.9" r="3.5" fill="#b23b3b"/>
<circle cx="838.1" cy="221.2" r="3.5" fill="#b23b3b"/>
<circle cx="883.5" cy="218.7" r="3.5" fill="#b23b3b"/>
<circle cx="942.6" cy="196.5" r="3.5" fill="#b23b3b"/>
<circle cx="987.1" cy="191.0" r="3.5" fill="#b23b3b"/>
<circle cx="1031.5" cy="174.9" r="3.5" fill="#b23b3b"/>
<circle cx="1090.0" cy="118.0" r="3.5" fill="#b23b3b"/>
<rect x="818" y="100" width="14" height="14" fill="#1b7f5a"/>
<text x="838" y="112" font-family="Arial, sans-serif" font-size="13" fill="#172033">AMQ</text>
<rect x="920" y="100" width="14" height="14" fill="#b23b3b"/>
<text x="940" y="112" font-family="Arial, sans-serif" font-size="13" fill="#172033">fitted minimax-DQN</text>
<rect x="90" y="572" width="1000" height="118" rx="6" fill="#ffffff" stroke="#d8e0ea"/>
<text x="118" y="604" font-family="Arial, sans-serif" font-size="12" font-weight="700" fill="#536173">AMQ mean work</text>
<text x="118" y="634" font-family="Arial, sans-serif" font-size="20" font-weight="700" fill="#1b7f5a">107.20</text>
<text x="350" y="604" font-family="Arial, sans-serif" font-size="12" font-weight="700" fill="#536173">DQN mean work</text>
<text x="350" y="634" font-family="Arial, sans-serif" font-size="20" font-weight="700" fill="#b23b3b">6,392,044</text>
<text x="582" y="604" font-family="Arial, sans-serif" font-size="12" font-weight="700" fill="#536173">Mean ratio</text>
<text x="582" y="634" font-family="Arial, sans-serif" font-size="20" font-weight="700" fill="#172033">59,627.3x</text>
<text x="814" y="604" font-family="Arial, sans-serif" font-size="12" font-weight="700" fill="#536173">Median ratio</text>
<text x="814" y="634" font-family="Arial, sans-serif" font-size="20" font-weight="700" fill="#172033">63,921.5x</text>
<line x1="112" y1="652" x2="1068" y2="652" stroke="#e4e9f0"/>
<text x="118" y="680" font-family="Arial, sans-serif" font-size="13" fill="#536173">Budget ceiling: AMQ 0/10; DQN 10/10</text>
<text x="90" y="718" font-family="Arial, sans-serif" font-size="12" fill="#536173">Stable condition: joint policy gap &lt;= 0.05 and remains stable. Runtime is auxiliary; native checkpoints are method-specific.</text>
</svg>