<svg xmlns="http://www.w3.org/2000/svg" width="1200" height="760" viewBox="0 0 1200 760">
<rect width="100%" height="100%" fill="#fbfcfe"/>
<text x="64" y="46" font-family="Arial, sans-serif" font-size="28" font-weight="700" fill="#172033">Routing convergence speed</text>
<text x="64" y="74" font-family="Arial, sans-serif" font-size="14" fill="#536173">AMQ vs fitted minimax-DQN; 10 seed(s); self-final joint policy gap.</text>
<line x1="90" y1="526" x2="1090" y2="526" stroke="#b8c2d0"/>
<line x1="90" y1="136" x2="90" y2="526" stroke="#b8c2d0"/>
<text x="90" y="114" font-family="Arial, sans-serif" font-size="18" font-weight="700" fill="#172033">Policy stabilization curve</text>
<text x="320" y="560" font-family="Arial, sans-serif" font-size="13" fill="#536173">cumulative effective Bellman / target work (log scale)</text>
<text x="24" y="386" font-family="Arial, sans-serif" font-size="13" fill="#536173" transform="rotate(-90 24 386)">policy similarity (%)</text>
<line x1="85" y1="508.0" x2="1090" y2="508.0" stroke="#e4e9f0"/>
<text x="46" y="512.0" font-family="Arial, sans-serif" font-size="12" fill="#536173">0</text>
<line x1="85" y1="410.5" x2="1090" y2="410.5" stroke="#e4e9f0"/>
<text x="46" y="414.5" font-family="Arial, sans-serif" font-size="12" fill="#536173">25</text>
<line x1="85" y1="313.0" x2="1090" y2="313.0" stroke="#e4e9f0"/>
<text x="46" y="317.0" font-family="Arial, sans-serif" font-size="12" fill="#536173">50</text>
<line x1="85" y1="215.5" x2="1090" y2="215.5" stroke="#e4e9f0"/>
<text x="46" y="219.5" font-family="Arial, sans-serif" font-size="12" fill="#536173">75</text>
<line x1="85" y1="118.0" x2="1090" y2="118.0" stroke="#e4e9f0"/>
<text x="46" y="122.0" font-family="Arial, sans-serif" font-size="12" fill="#536173">100</text>
<path d="M 90.0 188.2 L 133.4 184.6 L 190.8 183.9 L 234.3 179.8 L 277.7 175.0 L 335.1 178.7 L 378.5 158.1 L 421.9 148.4 L 479.3 132.3 L 522.8 125.7 L 566.2 121.3 L 623.6 118.0" fill="none" stroke="#1b7f5a" stroke-width="3"/>
<circle cx="90.0" cy="188.2" r="3.5" fill="#1b7f5a"/>
<circle cx="133.4" cy="184.6" r="3.5" fill="#1b7f5a"/>
<circle cx="190.8" cy="183.9" r="3.5" fill="#1b7f5a"/>
<circle cx="234.3" cy="179.8" r="3.5" fill="#1b7f5a"/>
<circle cx="277.7" cy="175.0" r="3.5" fill="#1b7f5a"/>
<circle cx="335.1" cy="178.7" r="3.5" fill="#1b7f5a"/>
<circle cx="378.5" cy="158.1" r="3.5" fill="#1b7f5a"/>
<circle cx="421.9" cy="148.4" r="3.5" fill="#1b7f5a"/>
<circle cx="479.3" cy="132.3" r="3.5" fill="#1b7f5a"/>
<circle cx="522.8" cy="125.7" r="3.5" fill="#1b7f5a"/>
<circle cx="566.2" cy="121.3" r="3.5" fill="#1b7f5a"/>
<circle cx="623.6" cy="118.0" r="3.5" fill="#1b7f5a"/>
<path d="M 1090.0 218.4 L 1090.0 200.2 L 1090.0 193.7 L 1090.0 191.3 L 1090.0 176.6 L 1090.0 158.7 L 1090.0 138.3 L 1090.0 136.8 L 1090.0 130.6 L 1090.0 126.4 L 1090.0 118.0" fill="none" stroke="#b23b3b" stroke-width="3"/>
<circle cx="1090.0" cy="218.4" r="3.5" fill="#b23b3b"/>
<circle cx="1090.0" cy="200.2" r="3.5" fill="#b23b3b"/>
<circle cx="1090.0" cy="193.7" r="3.5" fill="#b23b3b"/>
<circle cx="1090.0" cy="191.3" r="3.5" fill="#b23b3b"/>
<circle cx="1090.0" cy="176.6" r="3.5" fill="#b23b3b"/>
<circle cx="1090.0" cy="158.7" r="3.5" fill="#b23b3b"/>
<circle cx="1090.0" cy="138.3" r="3.5" fill="#b23b3b"/>
<circle cx="1090.0" cy="136.8" r="3.5" fill="#b23b3b"/>
<circle cx="1090.0" cy="130.6" r="3.5" fill="#b23b3b"/>
<circle cx="1090.0" cy="126.4" r="3.5" fill="#b23b3b"/>
<circle cx="1090.0" cy="118.0" r="3.5" fill="#b23b3b"/>
<rect x="818" y="100" width="14" height="14" fill="#1b7f5a"/>
<text x="838" y="112" font-family="Arial, sans-serif" font-size="13" fill="#172033">AMQ</text>
<rect x="920" y="100" width="14" height="14" fill="#b23b3b"/>
<text x="940" y="112" font-family="Arial, sans-serif" font-size="13" fill="#172033">fitted minimax-DQN</text>
<rect x="90" y="572" width="1000" height="118" rx="6" fill="#ffffff" stroke="#d8e0ea"/>
<text x="118" y="604" font-family="Arial, sans-serif" font-size="12" font-weight="700" fill="#536173">AMQ mean work</text>
<text x="118" y="634" font-family="Arial, sans-serif" font-size="20" font-weight="700" fill="#1b7f5a">440.10</text>
<text x="350" y="604" font-family="Arial, sans-serif" font-size="12" font-weight="700" fill="#536173">DQN mean work</text>
<text x="350" y="634" font-family="Arial, sans-serif" font-size="20" font-weight="700" fill="#b23b3b">8,557,164</text>
<text x="582" y="604" font-family="Arial, sans-serif" font-size="12" font-weight="700" fill="#536173">Mean ratio</text>
<text x="582" y="634" font-family="Arial, sans-serif" font-size="20" font-weight="700" fill="#172033">19,443.7x</text>
<text x="814" y="604" font-family="Arial, sans-serif" font-size="12" font-weight="700" fill="#536173">Median ratio</text>
<text x="814" y="634" font-family="Arial, sans-serif" font-size="20" font-weight="700" fill="#172033">24,449.0x</text>
<line x1="112" y1="652" x2="1068" y2="652" stroke="#e4e9f0"/>
<text x="118" y="680" font-family="Arial, sans-serif" font-size="13" fill="#536173">Budget ceiling: AMQ 0/10; DQN 1/10</text>
<text x="90" y="718" font-family="Arial, sans-serif" font-size="12" fill="#536173">Stable condition: joint policy gap &lt;= 0.05 and remains stable. Runtime is auxiliary; native checkpoints are method-specific.</text>
</svg>